<mxfile host="app.diagrams.net" modified="2022-03-01T09:49:48.472Z" agent="5.0 (Windows NT 10.0; WOW64) AppleWebKit/537.36 (KHTML, like Gecko) Chrome/86.0.4240.198 Safari/537.36" etag="qy5YpjxEvk8j4qUFGsvj" version="16.6.4" type="github">
  <diagram name="Page-1" id="13e1069c-82ec-6db2-03f1-153e76fe0fe0">
    <mxGraphModel dx="1093" dy="546" grid="1" gridSize="10" guides="1" tooltips="1" connect="1" arrows="1" fold="1" page="1" pageScale="1" pageWidth="1100" pageHeight="850" background="none" math="0" shadow="0">
      <root>
        <mxCell id="0" />
        <mxCell id="1" parent="0" />
        <mxCell id="7baba1c4bc27f4b0-6" value="DispatchInfo" style="shape=umlLifeline;perimeter=lifelinePerimeter;whiteSpace=wrap;html=1;container=1;collapsible=0;recursiveResize=0;outlineConnect=0;rounded=1;shadow=0;comic=0;labelBackgroundColor=none;strokeWidth=1;fontFamily=Verdana;fontSize=12;align=center;" parent="1" vertex="1">
          <mxGeometry x="894" y="80" width="100" height="760" as="geometry" />
        </mxCell>
        <mxCell id="7aEkhH2fnmOaqYkedOU2-54" value="" style="html=1;points=[];perimeter=orthogonalPerimeter;fontSize=10;" vertex="1" parent="7baba1c4bc27f4b0-6">
          <mxGeometry x="45" y="320" width="10" height="80" as="geometry" />
        </mxCell>
        <mxCell id="7baba1c4bc27f4b0-3" value="TagEndPoint" style="shape=umlLifeline;perimeter=lifelinePerimeter;whiteSpace=wrap;html=1;container=1;collapsible=0;recursiveResize=0;outlineConnect=0;rounded=1;shadow=0;comic=0;labelBackgroundColor=none;strokeWidth=1;fontFamily=Verdana;fontSize=12;align=center;" parent="1" vertex="1">
          <mxGeometry x="474" y="80" width="100" height="760" as="geometry" />
        </mxCell>
        <mxCell id="7baba1c4bc27f4b0-13" value="" style="html=1;points=[];perimeter=orthogonalPerimeter;rounded=0;shadow=0;comic=0;labelBackgroundColor=none;strokeWidth=1;fontFamily=Verdana;fontSize=12;align=center;" parent="7baba1c4bc27f4b0-3" vertex="1">
          <mxGeometry x="45" y="190" width="10" height="80" as="geometry" />
        </mxCell>
        <mxCell id="7baba1c4bc27f4b0-4" value="Tag" style="shape=umlLifeline;perimeter=lifelinePerimeter;whiteSpace=wrap;html=1;container=1;collapsible=0;recursiveResize=0;outlineConnect=0;rounded=1;shadow=0;comic=0;labelBackgroundColor=none;strokeWidth=1;fontFamily=Verdana;fontSize=12;align=center;" parent="1" vertex="1">
          <mxGeometry x="614" y="80" width="100" height="760" as="geometry" />
        </mxCell>
        <mxCell id="7aEkhH2fnmOaqYkedOU2-46" value="" style="html=1;points=[];perimeter=orthogonalPerimeter;" vertex="1" parent="7baba1c4bc27f4b0-4">
          <mxGeometry x="45" y="291" width="10" height="20" as="geometry" />
        </mxCell>
        <mxCell id="7baba1c4bc27f4b0-5" value="NfcDispatcher" style="shape=umlLifeline;perimeter=lifelinePerimeter;whiteSpace=wrap;html=1;container=1;collapsible=0;recursiveResize=0;outlineConnect=0;rounded=1;shadow=0;comic=0;labelBackgroundColor=none;strokeWidth=1;fontFamily=Verdana;fontSize=12;align=center;" parent="1" vertex="1">
          <mxGeometry x="754" y="80" width="100" height="760" as="geometry" />
        </mxCell>
        <mxCell id="7aEkhH2fnmOaqYkedOU2-43" value="" style="html=1;points=[];perimeter=orthogonalPerimeter;" vertex="1" parent="7baba1c4bc27f4b0-5">
          <mxGeometry x="185" y="558" width="10" height="80" as="geometry" />
        </mxCell>
        <mxCell id="7baba1c4bc27f4b0-16" value="" style="html=1;points=[];perimeter=orthogonalPerimeter;rounded=0;shadow=0;comic=0;labelBackgroundColor=none;strokeWidth=1;fontFamily=Verdana;fontSize=12;align=center;" parent="7baba1c4bc27f4b0-5" vertex="1">
          <mxGeometry x="45" y="310" width="10" height="310" as="geometry" />
        </mxCell>
        <mxCell id="7aEkhH2fnmOaqYkedOU2-44" value="tryStartActivity" style="html=1;verticalAlign=bottom;endArrow=block;rounded=0;exitX=0.98;exitY=0.897;exitDx=0;exitDy=0;exitPerimeter=0;entryX=-0.018;entryY=0.372;entryDx=0;entryDy=0;entryPerimeter=0;" edge="1" target="7aEkhH2fnmOaqYkedOU2-43" parent="7baba1c4bc27f4b0-5" source="7baba1c4bc27f4b0-16">
          <mxGeometry relative="1" as="geometry">
            <mxPoint x="50" y="570" as="sourcePoint" />
            <mxPoint x="180" y="588" as="targetPoint" />
          </mxGeometry>
        </mxCell>
        <mxCell id="7aEkhH2fnmOaqYkedOU2-33" value="" style="html=1;points=[];perimeter=orthogonalPerimeter;" vertex="1" parent="7baba1c4bc27f4b0-5">
          <mxGeometry x="50" y="365" width="10" height="40" as="geometry" />
        </mxCell>
        <mxCell id="7aEkhH2fnmOaqYkedOU2-34" value="tryNdef" style="edgeStyle=orthogonalEdgeStyle;html=1;align=left;spacingLeft=2;endArrow=block;rounded=0;entryX=1;entryY=0;" edge="1" target="7aEkhH2fnmOaqYkedOU2-33" parent="7baba1c4bc27f4b0-5">
          <mxGeometry relative="1" as="geometry">
            <mxPoint x="55" y="345" as="sourcePoint" />
            <Array as="points">
              <mxPoint x="85" y="345" />
            </Array>
          </mxGeometry>
        </mxCell>
        <mxCell id="7aEkhH2fnmOaqYkedOU2-35" value="" style="html=1;points=[];perimeter=orthogonalPerimeter;" vertex="1" parent="7baba1c4bc27f4b0-5">
          <mxGeometry x="50" y="442" width="10" height="40" as="geometry" />
        </mxCell>
        <mxCell id="7aEkhH2fnmOaqYkedOU2-36" value="tryTech" style="edgeStyle=orthogonalEdgeStyle;html=1;align=left;spacingLeft=2;endArrow=block;rounded=0;entryX=1;entryY=0;" edge="1" target="7aEkhH2fnmOaqYkedOU2-35" parent="7baba1c4bc27f4b0-5">
          <mxGeometry relative="1" as="geometry">
            <mxPoint x="55" y="422" as="sourcePoint" />
            <Array as="points">
              <mxPoint x="85" y="422" />
            </Array>
          </mxGeometry>
        </mxCell>
        <mxCell id="7aEkhH2fnmOaqYkedOU2-39" value="" style="html=1;points=[];perimeter=orthogonalPerimeter;" vertex="1" parent="7baba1c4bc27f4b0-5">
          <mxGeometry x="50" y="523" width="10" height="40" as="geometry" />
        </mxCell>
        <mxCell id="7aEkhH2fnmOaqYkedOU2-40" value="tryTag" style="edgeStyle=orthogonalEdgeStyle;html=1;align=left;spacingLeft=2;endArrow=block;rounded=0;entryX=1;entryY=0;" edge="1" target="7aEkhH2fnmOaqYkedOU2-39" parent="7baba1c4bc27f4b0-5">
          <mxGeometry relative="1" as="geometry">
            <mxPoint x="55" y="503" as="sourcePoint" />
            <Array as="points">
              <mxPoint x="85" y="503" />
            </Array>
          </mxGeometry>
        </mxCell>
        <mxCell id="7baba1c4bc27f4b0-8" value="NfcService" style="shape=umlLifeline;perimeter=lifelinePerimeter;whiteSpace=wrap;html=1;container=1;collapsible=0;recursiveResize=0;outlineConnect=0;rounded=1;shadow=0;comic=0;labelBackgroundColor=none;strokeWidth=1;fontFamily=Verdana;fontSize=12;align=center;" parent="1" vertex="1">
          <mxGeometry x="174" y="80" width="100" height="760" as="geometry" />
        </mxCell>
        <mxCell id="7aEkhH2fnmOaqYkedOU2-6" value="发送&lt;br&gt;MSG_NDEF_TAG消息" style="edgeStyle=orthogonalEdgeStyle;html=1;align=left;spacingLeft=2;endArrow=block;rounded=0;entryX=1;entryY=0;" edge="1" target="7aEkhH2fnmOaqYkedOU2-5" parent="7baba1c4bc27f4b0-8">
          <mxGeometry relative="1" as="geometry">
            <mxPoint x="55" y="110" as="sourcePoint" />
            <Array as="points">
              <mxPoint x="85" y="110" />
            </Array>
          </mxGeometry>
        </mxCell>
        <mxCell id="7baba1c4bc27f4b0-9" value="" style="html=1;points=[];perimeter=orthogonalPerimeter;rounded=0;shadow=0;comic=0;labelBackgroundColor=none;strokeWidth=1;fontFamily=Verdana;fontSize=12;align=center;" parent="7baba1c4bc27f4b0-8" vertex="1">
          <mxGeometry x="45" y="100" width="10" height="150" as="geometry" />
        </mxCell>
        <mxCell id="7aEkhH2fnmOaqYkedOU2-5" value="" style="html=1;points=[];perimeter=orthogonalPerimeter;" vertex="1" parent="7baba1c4bc27f4b0-8">
          <mxGeometry x="50" y="130" width="10" height="70" as="geometry" />
        </mxCell>
        <mxCell id="7baba1c4bc27f4b0-40" value="Note" style="shape=note;whiteSpace=wrap;html=1;size=14;verticalAlign=top;align=left;spacingTop=-6;rounded=0;shadow=0;comic=0;labelBackgroundColor=none;strokeWidth=1;fontFamily=Verdana;fontSize=12" parent="1" vertex="1">
          <mxGeometry x="174" y="30" width="100" height="35" as="geometry" />
        </mxCell>
        <mxCell id="7baba1c4bc27f4b0-41" value="处理MSG_NDEF_TAG消息" style="shape=note;whiteSpace=wrap;html=1;size=14;verticalAlign=top;align=left;spacingTop=-6;rounded=0;shadow=0;comic=0;labelBackgroundColor=none;strokeWidth=1;fontFamily=Verdana;fontSize=12" parent="1" vertex="1">
          <mxGeometry x="296" y="30" width="136" height="35" as="geometry" />
        </mxCell>
        <mxCell id="7baba1c4bc27f4b0-42" value="从Tag中读取NDEF消息" style="shape=note;whiteSpace=wrap;html=1;size=14;verticalAlign=top;align=left;spacingTop=-6;rounded=0;shadow=0;comic=0;labelBackgroundColor=none;strokeWidth=1;fontFamily=Verdana;fontSize=12" parent="1" vertex="1">
          <mxGeometry x="474" y="30" width="100" height="35" as="geometry" />
        </mxCell>
        <mxCell id="7baba1c4bc27f4b0-43" value="表示目标NFC Tag" style="shape=note;whiteSpace=wrap;html=1;size=14;verticalAlign=top;align=left;spacingTop=-6;rounded=0;shadow=0;comic=0;labelBackgroundColor=none;strokeWidth=1;fontFamily=Verdana;fontSize=12" parent="1" vertex="1">
          <mxGeometry x="614" y="30" width="100" height="35" as="geometry" />
        </mxCell>
        <mxCell id="7baba1c4bc27f4b0-44" value="分发Tag" style="shape=note;whiteSpace=wrap;html=1;size=14;verticalAlign=top;align=left;spacingTop=-6;rounded=0;shadow=0;comic=0;labelBackgroundColor=none;strokeWidth=1;fontFamily=Verdana;fontSize=12" parent="1" vertex="1">
          <mxGeometry x="754" y="30" width="100" height="35" as="geometry" />
        </mxCell>
        <mxCell id="7baba1c4bc27f4b0-45" value="&lt;span style=&quot;font-family: &amp;#34;helvetica&amp;#34; ; font-size: 1px ; text-align: center ; background-color: rgb(255 , 255 , 255)&quot;&gt;用于启动目标Activity&lt;/span&gt;" style="shape=note;whiteSpace=wrap;html=1;size=14;verticalAlign=top;align=left;spacingTop=-6;rounded=0;shadow=0;comic=0;labelBackgroundColor=none;strokeWidth=1;fontFamily=Verdana;fontSize=12" parent="1" vertex="1">
          <mxGeometry x="894" y="30" width="100" height="35" as="geometry" />
        </mxCell>
        <mxCell id="7aEkhH2fnmOaqYkedOU2-1" value="onRemoteEndpointDiscovered" style="html=1;verticalAlign=bottom;endArrow=block;labelBackgroundColor=none;fontFamily=Verdana;fontSize=12;edgeStyle=elbowEdgeStyle;elbow=vertical;entryX=-0.023;entryY=0.002;entryDx=0;entryDy=0;entryPerimeter=0;" edge="1" parent="1" target="7baba1c4bc27f4b0-9">
          <mxGeometry relative="1" as="geometry">
            <mxPoint x="14" y="180" as="sourcePoint" />
            <mxPoint x="214" y="180" as="targetPoint" />
          </mxGeometry>
        </mxCell>
        <mxCell id="7aEkhH2fnmOaqYkedOU2-3" value="（检测到tag时调用）" style="text;html=1;resizable=0;autosize=1;align=center;verticalAlign=middle;points=[];fillColor=none;strokeColor=none;rounded=0;" vertex="1" parent="1">
          <mxGeometry x="49" y="180" width="130" height="20" as="geometry" />
        </mxCell>
        <mxCell id="7aEkhH2fnmOaqYkedOU2-9" value="findAndReadNdef" style="html=1;verticalAlign=bottom;endArrow=block;rounded=0;entryX=0.033;entryY=0.156;entryDx=0;entryDy=0;entryPerimeter=0;" edge="1" parent="1" source="7baba1c4bc27f4b0-10" target="7baba1c4bc27f4b0-13">
          <mxGeometry width="80" relative="1" as="geometry">
            <mxPoint x="374" y="290" as="sourcePoint" />
            <mxPoint x="444" y="290" as="targetPoint" />
          </mxGeometry>
        </mxCell>
        <mxCell id="7aEkhH2fnmOaqYkedOU2-12" value="dispatchTag" style="html=1;verticalAlign=bottom;endArrow=block;rounded=0;entryX=0.066;entryY=0.058;entryDx=0;entryDy=0;entryPerimeter=0;" edge="1" parent="1">
          <mxGeometry width="80" relative="1" as="geometry">
            <mxPoint x="374" y="401" as="sourcePoint" />
            <mxPoint x="799.6599999999999" y="400.98" as="targetPoint" />
          </mxGeometry>
        </mxCell>
        <mxCell id="7aEkhH2fnmOaqYkedOU2-47" value="创建tag对象" style="html=1;verticalAlign=bottom;endArrow=block;entryX=0;entryY=0;rounded=0;" edge="1" parent="1">
          <mxGeometry relative="1" as="geometry">
            <mxPoint x="374" y="375" as="sourcePoint" />
            <mxPoint x="659" y="376" as="targetPoint" />
          </mxGeometry>
        </mxCell>
        <mxCell id="7aEkhH2fnmOaqYkedOU2-55" value="&lt;font style=&quot;font-size: 1px&quot;&gt;创建DispatchInfo对象&lt;br&gt;&lt;/font&gt;" style="html=1;verticalAlign=bottom;endArrow=block;entryX=-0.007;entryY=0.142;rounded=0;fontSize=1;entryDx=0;entryDy=0;entryPerimeter=0;exitX=0.953;exitY=0.07;exitDx=0;exitDy=0;exitPerimeter=0;" edge="1" target="7aEkhH2fnmOaqYkedOU2-54" parent="1" source="7baba1c4bc27f4b0-16">
          <mxGeometry relative="1" as="geometry">
            <mxPoint x="864" y="400" as="sourcePoint" />
          </mxGeometry>
        </mxCell>
        <mxCell id="7baba1c4bc27f4b0-2" value="NfcService.&lt;br&gt;NfcServiceHandler" style="shape=umlLifeline;perimeter=lifelinePerimeter;whiteSpace=wrap;html=1;container=1;collapsible=0;recursiveResize=0;outlineConnect=0;rounded=1;shadow=0;comic=0;labelBackgroundColor=none;strokeWidth=1;fontFamily=Verdana;fontSize=12;align=center;" parent="1" vertex="1">
          <mxGeometry x="314" y="80" width="100" height="760" as="geometry" />
        </mxCell>
        <mxCell id="7baba1c4bc27f4b0-10" value="" style="html=1;points=[];perimeter=orthogonalPerimeter;rounded=0;shadow=0;comic=0;labelBackgroundColor=none;strokeWidth=1;fontFamily=Verdana;fontSize=12;align=center;" parent="7baba1c4bc27f4b0-2" vertex="1">
          <mxGeometry x="45" y="170" width="10" height="220" as="geometry" />
        </mxCell>
        <mxCell id="7aEkhH2fnmOaqYkedOU2-8" value="&lt;span style=&quot;font-size: 11px&quot;&gt;handleMessage&lt;/span&gt;" style="edgeStyle=orthogonalEdgeStyle;html=1;align=left;spacingLeft=2;endArrow=block;rounded=0;entryX=0.991;entryY=0.063;entryDx=0;entryDy=0;entryPerimeter=0;" edge="1" parent="7baba1c4bc27f4b0-2" target="7baba1c4bc27f4b0-10">
          <mxGeometry relative="1" as="geometry">
            <mxPoint x="50" y="160" as="sourcePoint" />
            <Array as="points">
              <mxPoint x="50" y="150" />
              <mxPoint x="75" y="150" />
              <mxPoint x="75" y="180" />
            </Array>
            <mxPoint x="60" y="180" as="targetPoint" />
          </mxGeometry>
        </mxCell>
        <mxCell id="7aEkhH2fnmOaqYkedOU2-10" value="" style="html=1;points=[];perimeter=orthogonalPerimeter;" vertex="1" parent="7baba1c4bc27f4b0-2">
          <mxGeometry x="50" y="250" width="10" height="90" as="geometry" />
        </mxCell>
        <mxCell id="7aEkhH2fnmOaqYkedOU2-11" value="dispatchTagEndpoint" style="edgeStyle=orthogonalEdgeStyle;html=1;align=left;spacingLeft=2;endArrow=block;rounded=0;entryX=1;entryY=0;" edge="1" target="7aEkhH2fnmOaqYkedOU2-10" parent="7baba1c4bc27f4b0-2">
          <mxGeometry relative="1" as="geometry">
            <mxPoint x="55" y="230" as="sourcePoint" />
            <Array as="points">
              <mxPoint x="85" y="230" />
            </Array>
          </mxGeometry>
        </mxCell>
      </root>
    </mxGraphModel>
  </diagram>
</mxfile>
